<svg xmlns="http://www.w3.org/2000/svg" viewBox="0 0 256 256" shape-rendering="geometricPrecision"><circle cx="128" cy="128" r="128" fill="#4DD0E1"/><path d="M62 124 q-4 -48 66 -64 q70 16 66 64 q4 44 -10 84 l-28 -4 q-18 -40 -28 -76 q-10 36 -28 76 l-28 4 q-14 -40 -10 -84 Z" fill="#3a2418"/><circle cx="74" cy="120" r="10" fill="#3a2418"/><circle cx="68" cy="98" r="9" fill="#3a2418"/><circle cx="80" cy="80" r="9" fill="#3a2418"/><circle cx="182" cy="120" r="10" fill="#3a2418"/><circle cx="188" cy="98" r="9" fill="#3a2418"/><circle cx="176" cy="80" r="9" fill="#3a2418"/><path d="M40 256 C 40 188 84 168 128 168 C 172 168 216 188 216 256 Z" fill="#e88a3a"/><path d="M104 162 q0 16 24 20 q24 -4 24 -20 Z" fill="#a06a44"/><ellipse cx="128" cy="118" rx="50.0" ry="58.0" fill="#c68b5e"/><ellipse cx="86" cy="124" rx="5.5" ry="7" fill="#c68b5e"/><ellipse cx="170" cy="124" rx="5.5" ry="7" fill="#c68b5e"/><path d="M82 96 q6 -30 46 -34 q40 4 46 34 q-2 14 -8 20 q-8 -14 -20 -14 q-6 -10 -18 -8 q-14 -2 -20 8 q-12 0 -20 14 q-6 -6 -6 -20 Z" fill="#3a2418"/><path d="M76 92 q52 -22 104 0 l0 8 q-52 -18 -104 0 Z" fill="#e88a3a"/><circle cx="128" cy="92" r="4" fill="#fff3d4"/><path d="M101 104 q9 -4 18 0" stroke="#2a1810" stroke-width="3.2" fill="none" stroke-linecap="round"/><path d="M137 104 q9 -4 18 0" stroke="#2a1810" stroke-width="3.2" fill="none" stroke-linecap="round"/><ellipse cx="110" cy="118" rx="3.6" ry="5" fill="#1f1a16"/><ellipse cx="146" cy="118" rx="3.6" ry="5" fill="#1f1a16"/><path d="M126 128 q-3 8 0 12 q3 2 5 0" stroke="#a06a44" stroke-width="2" fill="none" stroke-linecap="round"/><circle cx="96" cy="138" r="6" fill="#d96a4a" opacity="0.55"/><circle cx="160" cy="138" r="6" fill="#d96a4a" opacity="0.55"/><path d="M116 144 q12 10 24 0" stroke="#3a1f1a" stroke-width="2.6" fill="none" stroke-linecap="round"/></svg>