<svg xmlns="http://www.w3.org/2000/svg" viewBox="0 0 280 280" width="512" height="512" preserveAspectRatio="xMidYMid meet"><mask id="viewboxMask"><rect width="280" height="280" rx="0" ry="0" x="0" y="0" fill="#fff"></rect></mask><g mask="url(#viewboxMask)"><rect fill="#835656" width="280" height="280" x="0" y="0"></rect><g transform="translate(8)"><path d="M132 36a56 56 0 0 0-56 56v6.17A12 12 0 0 0 66 110v14a12 12 0 0 0 10.3 11.88 56.04 56.04 0 0 0 31.7 44.73v18.4h-4a72 72 0 0 0-72 72v9h200v-9a72 72 0 0 0-72-72h-4v-18.39a56.04 56.04 0 0 0 31.7-44.73A12 12 0 0 0 198 124v-14a12 12 0 0 0-10-11.83V92a56 56 0 0 0-56-56Z" fill="#d08b5b"></path><path d="M108 180.61v8a55.79 55.79 0 0 0 24 5.39c8.59 0 16.73-1.93 24-5.39v-8a55.79 55.79 0 0 1-24 5.39 55.79 55.79 0 0 1-24-5.39Z" fill="#000" fill-opacity=".1"></path><g transform="translate(0 170)"><path d="M132.5 65.83c27.34 0 49.5-13.2 49.5-29.48 0-1.37-.16-2.7-.46-4.02A72.03 72.03 0 0 1 232 101.05V110H32v-8.95A72.03 72.03 0 0 1 83.53 32a18 18 0 0 0-.53 4.35c0 16.28 22.16 29.48 49.5 29.48Z" fill="#ffdeb5"></path></g><g transform="translate(78 134)"><path fill-rule="evenodd" clip-rule="evenodd" d="M35.12 15.13a19 19 0 0 0 37.77-.09c.08-.77-.77-2.04-1.85-2.04H37.1C36 13 35 14.18 35.12 15.13Z" fill="#000" fill-opacity=".7"></path><path d="M70 13H39a5 5 0 0 0 5 5h21a5 5 0 0 0 5-5Z" fill="#fff"></path><path d="M66.7 27.14A10.96 10.96 0 0 0 54 25.2a10.95 10.95 0 0 0-12.7 1.94A18.93 18.93 0 0 0 54 32c4.88 0 9.33-1.84 12.7-4.86Z" fill="#FF4F6D"></path></g><g transform="translate(104 122)"><path fill-rule="evenodd" clip-rule="evenodd" d="M16 8c0 4.42 5.37 8 12 8s12-3.58 12-8" fill="#000" fill-opacity=".16"></path></g><g transform="translate(76 90)"><path d="M35.96 10c-2.55 0-5.08 1.98-6.46 3.82-1.39-1.84-3.9-3.82-6.46-3.82-5.49 0-9.04 3.33-9.04 7.64 0 5.73 4.41 9.13 9.04 12.74 1.66 1.23 4.78 4.4 5.17 5.1.38.68 2.1.7 2.58 0 .48-.73 3.51-3.87 5.17-5.1 4.63-3.6 9.04-7 9.04-12.74 0-4.3-3.55-7.64-9.04-7.64ZM88.96 10c-2.55 0-5.08 1.98-6.46 3.82-1.39-1.84-3.9-3.82-6.46-3.82-5.49 0-9.04 3.33-9.04 7.64 0 5.73 4.41 9.13 9.04 12.74 1.65 1.23 4.78 4.4 5.17 5.1.38.68 2.1.7 2.58 0 .48-.73 3.51-3.87 5.17-5.1 4.63-3.6 9.04-7 9.04-12.74 0-4.3-3.55-7.64-9.04-7.64Z" fill="#FF5353" fill-opacity=".8"></path></g><g transform="translate(76 82)"><path d="M15.63 17.16c3.92-5.51 14.65-8.6 23.9-6.33a2 2 0 1 0 .95-3.88c-10.74-2.64-23.17.94-28.11 7.9a2 2 0 0 0 3.26 2.3ZM96.37 17.16c-3.91-5.51-14.65-8.6-23.9-6.33a2 2 0 1 1-.95-3.88c10.74-2.64 23.17.94 28.11 7.9a2 2 0 0 1-3.26 2.3Z" fill="#000" fill-opacity=".6"></path></g><g transform="translate(-1)"><path d="M250 70.5c0 .8-.03 1.6-.1 2.37A57.74 57.74 0 0 1 261 107c0 7.16-1.3 14.01-3.67 20.34a28.47 28.47 0 0 1-11.78 29.71 53.5 53.5 0 0 1-53.86 29.64A36.35 36.35 0 0 1 168.5 195c-4.02 0-7.88-.65-11.5-1.85v-12.54a56.03 56.03 0 0 0 31.8-45.74A12 12 0 0 0 199 123v-13a12 12 0 0 0-10-11.83V92a56 56 0 0 0-2.22-15.68l1.37 12.87-11.34-24-45.13-19.52-30.12 10.56-21.5 20.19-.04-2.6A55.93 55.93 0 0 0 77 92v6.17A12 12 0 0 0 67 110v13a12 12 0 0 0 10.2 11.87A56.03 56.03 0 0 0 109 180.6v10.94A36.36 36.36 0 0 1 93.5 195c-8.8 0-16.88-3.12-23.19-8.31a53.5 53.5 0 0 1-53.86-29.63 28.47 28.47 0 0 1-11.78-29.72A57.87 57.87 0 0 1 1 107a57.74 57.74 0 0 1 11.1-34.13 28.5 28.5 0 0 1 16-28.04 55.02 55.02 0 0 1 47.55-31.78 28.4 28.4 0 0 1 26.6-7.24A83.78 83.78 0 0 1 133 0a83.82 83.82 0 0 1 29.4 5.3 28.4 28.4 0 0 1 23.94 7.76 55.02 55.02 0 0 1 47.56 31.77A28.5 28.5 0 0 1 250 70.5Z" fill="#724133"></path><path d="M188.37 98.97c.41-2.55.63-5.16.63-7.82C189 62.35 163.7 39 132.5 39S76 62.35 76 91.15c0 2.66.22 5.27.63 7.82 4.1-25.09 27.55-44.32 55.87-44.32 28.32 0 51.78 19.23 55.87 44.32Z" fill="#92D9FF"></path></g><g transform="translate(49 72)"></g><g transform="translate(62 42)"></g></g></g></svg>