<svg xmlns="http://www.w3.org/2000/svg" viewBox="0 0 256 256" shape-rendering="geometricPrecision"><circle cx="128" cy="128" r="128" fill="#FF5C5C"/><path d="M70 120 q-4 -50 58 -62 q62 12 58 62 q4 50 -8 90 l-30 -10 q-20 -50 -20 -80 q0 30 -20 80 l-30 10 q-12 -40 -8 -90 Z" fill="#5a3a22"/><path d="M40 256 C 40 188 84 168 128 168 C 172 168 216 188 216 256 Z" fill="#3a4f6b"/><path d="M104 162 q0 16 24 20 q24 -4 24 -20 Z" fill="#d9a784"/><ellipse cx="128" cy="118" rx="50.0" ry="58.0" fill="#f4c9a8"/><ellipse cx="86" cy="124" rx="5.5" ry="7" fill="#f4c9a8"/><ellipse cx="170" cy="124" rx="5.5" ry="7" fill="#f4c9a8"/><path d="M78 102 q6 -38 50 -42 q44 4 50 42 q4 18 -2 26 q-6 -18 -22 -22 q-8 18 -28 18 q-22 0 -32 -10 q-12 4 -16 14 q-4 -10 0 -26 Z" fill="#5a3a22"/><path d="M101 104 q9 -4 18 0" stroke="#4a2c18" stroke-width="3.2" fill="none" stroke-linecap="round"/><path d="M137 104 q9 -4 18 0" stroke="#4a2c18" stroke-width="3.2" fill="none" stroke-linecap="round"/><ellipse cx="110" cy="118" rx="3.6" ry="5" fill="#1f1a16"/><ellipse cx="146" cy="118" rx="3.6" ry="5" fill="#1f1a16"/><path d="M126 128 q-3 8 0 12 q3 2 5 0" stroke="#d9a784" stroke-width="2" fill="none" stroke-linecap="round"/><circle cx="96" cy="138" r="6" fill="#ff8a7a" opacity="0.55"/><circle cx="160" cy="138" r="6" fill="#ff8a7a" opacity="0.55"/><path d="M116 144 q12 10 24 0" stroke="#3a1f1a" stroke-width="2.6" fill="none" stroke-linecap="round"/><circle cx="84" cy="138" r="3" fill="#e8c46a"/><circle cx="172" cy="138" r="3" fill="#e8c46a"/></svg>