<svg xmlns="http://www.w3.org/2000/svg" viewBox="0 0 256 256" shape-rendering="geometricPrecision"><circle cx="128" cy="128" r="128" fill="#8C5E3B"/><path d="M40 256 C 40 188 84 168 128 168 C 172 168 216 188 216 256 Z" fill="#2a6a8a"/><path d="M104 162 q0 16 24 20 q24 -4 24 -20 Z" fill="#d4a878"/><ellipse cx="128" cy="118" rx="50.0" ry="58.0" fill="#f2c99b"/><ellipse cx="86" cy="124" rx="5.5" ry="7" fill="#f2c99b"/><ellipse cx="170" cy="124" rx="5.5" ry="7" fill="#f2c99b"/><path d="M82 130 q-2 -16 4 -22 q4 18 8 22 Z" fill="#2a1f18"/><path d="M174 130 q2 -16 -4 -22 q-4 18 -8 22 Z" fill="#2a1f18"/><path d="M88 86 q8 -16 40 -18 q32 2 40 18 q-2 -2 -40 -2 q-38 0 -40 2 Z" fill="#d4a878" opacity="0.35"/><path d="M101 104 q9 -4 18 0" stroke="#1f1a14" stroke-width="3.2" fill="none" stroke-linecap="round"/><path d="M137 104 q9 -4 18 0" stroke="#1f1a14" stroke-width="3.2" fill="none" stroke-linecap="round"/><ellipse cx="110" cy="118" rx="3.6" ry="5" fill="#1f1a14"/><ellipse cx="146" cy="118" rx="3.6" ry="5" fill="#1f1a14"/><path d="M126 128 q-3 8 0 12 q3 2 5 0" stroke="#d4a878" stroke-width="2" fill="none" stroke-linecap="round"/><path d="M118 144 q10 4 20 0" stroke="#3a1f1a" stroke-width="2.6" fill="none" stroke-linecap="round"/><rect x="96" y="108" width="28" height="20" rx="4" fill="none" stroke="#1f1a16" stroke-width="2.5"/><rect x="132" y="108" width="28" height="20" rx="4" fill="none" stroke="#1f1a16" stroke-width="2.5"/><path d="M124 118 h8" stroke="#1f1a16" stroke-width="2.5"/></svg>