<svg xmlns="http://www.w3.org/2000/svg" viewBox="0 0 280 280" width="512" height="512" preserveAspectRatio="xMidYMid meet"><mask id="viewboxMask"><rect width="280" height="280" rx="0" ry="0" x="0" y="0" fill="#fff"></rect></mask><g mask="url(#viewboxMask)"><rect fill="#4E89AE" width="280" height="280" x="0" y="0"></rect><g transform="translate(8)"><path d="M132 36a56 56 0 0 0-56 56v6.17A12 12 0 0 0 66 110v14a12 12 0 0 0 10.3 11.88 56.04 56.04 0 0 0 31.7 44.73v18.4h-4a72 72 0 0 0-72 72v9h200v-9a72 72 0 0 0-72-72h-4v-18.39a56.04 56.04 0 0 0 31.7-44.73A12 12 0 0 0 198 124v-14a12 12 0 0 0-10-11.83V92a56 56 0 0 0-56-56Z" fill="#d08b5b"></path><path d="M108 180.61v8a55.79 55.79 0 0 0 24 5.39c8.59 0 16.73-1.93 24-5.39v-8a55.79 55.79 0 0 1-24 5.39 55.79 55.79 0 0 1-24-5.39Z" fill="#000" fill-opacity=".1"></path><g transform="translate(0 170)"><path d="M132.5 51.83c18.5 0 33.5-9.62 33.5-21.48 0-.36-.01-.7-.04-1.06A72 72 0 0 1 232 101.04V110H32v-8.95a72 72 0 0 1 67.05-71.83c-.03.37-.05.75-.05 1.13 0 11.86 15 21.48 33.5 21.48Z" fill="#b1e2ff"></path><path d="M132.5 58.76c21.89 0 39.63-12.05 39.63-26.91 0-.6-.02-1.2-.08-1.8-2-.33-4.03-.59-6.1-.76.04.35.05.7.05 1.06 0 11.86-15 21.48-33.5 21.48S99 42.2 99 30.35c0-.38.02-.76.05-1.13-2.06.14-4.08.36-6.08.67-.07.65-.1 1.3-.1 1.96 0 14.86 17.74 26.91 39.63 26.91Z" fill="#000" fill-opacity=".08"></path></g><g transform="translate(78 134)"><path fill-rule="evenodd" clip-rule="evenodd" d="M35.12 15.13a19 19 0 0 0 37.77-.09c.08-.77-.77-2.04-1.85-2.04H37.1C36 13 35 14.18 35.12 15.13Z" fill="#000" fill-opacity=".7"></path><path d="M70 13H39a5 5 0 0 0 5 5h21a5 5 0 0 0 5-5Z" fill="#fff"></path><path d="M66.7 27.14A10.96 10.96 0 0 0 54 25.2a10.95 10.95 0 0 0-12.7 1.94A18.93 18.93 0 0 0 54 32c4.88 0 9.33-1.84 12.7-4.86Z" fill="#FF4F6D"></path></g><g transform="translate(104 122)"><path fill-rule="evenodd" clip-rule="evenodd" d="M16 8c0 4.42 5.37 8 12 8s12-3.58 12-8" fill="#000" fill-opacity=".16"></path></g><g transform="translate(76 90)"><path d="M16.16 22.45c1.85-3.8 6-6.45 10.84-6.45 4.81 0 8.96 2.63 10.82 6.4.55 1.13-.24 2.05-1.03 1.37a15.05 15.05 0 0 0-9.8-3.43c-3.73 0-7.12 1.24-9.55 3.23-.9.73-1.82-.01-1.28-1.12ZM74.16 22.45c1.85-3.8 6-6.45 10.84-6.45 4.81 0 8.96 2.63 10.82 6.4.55 1.13-.24 2.05-1.03 1.37a15.05 15.05 0 0 0-9.8-3.43c-3.74 0-7.13 1.24-9.56 3.23-.9.73-1.82-.01-1.28-1.12Z" fill-rule="evenodd" clip-rule="evenodd" fill="#000" fill-opacity=".6"></path></g><g transform="translate(76 82)"><path d="M15.63 17.16c3.92-5.51 14.65-8.6 23.9-6.33a2 2 0 1 0 .95-3.88c-10.74-2.64-23.17.94-28.11 7.9a2 2 0 0 0 3.26 2.3ZM96.37 17.16c-3.91-5.51-14.65-8.6-23.9-6.33a2 2 0 1 1-.95-3.88c10.74-2.64 23.17.94 28.11 7.9a2 2 0 0 1-3.26 2.3Z" fill="#000" fill-opacity=".6"></path></g><g transform="translate(-1)"><path d="M177.75 37.86c9.52 7.1 17.76 18.58 18.16 30.82.17 5.5-.62 11.23-1.73 16.62-.5 2.46-1.6 4.66-2.7 6.85-1.07 2.12-2.13 4.24-2.64 6.58-2.63-8.93-10.09-13.97-17.5-19-3.96-2.66-7.9-5.33-11.1-8.58 1.02 1.93 2.3 3.7 3.6 5.46 1.23 1.7 2.47 3.4 3.45 5.22-9.24-5.66-18.2-13.88-22.03-24.3a29.46 29.46 0 0 1-6.1 14.67c-3.02 3.8-7.59 7.87-12.3 9.34 2.43-5.5 4.5-11.21 6.4-16.92-1.78 2.31-7.21 11.29-9.6 15.23l-.77 1.26a73.9 73.9 0 0 1-10.47 13.35c-.5.53-1.42 1.52-.67.54-1.85 2.35-4.45 4.26-6.9 6.07l-1.4 1.04a51.67 51.67 0 0 1-9.2 5.48c-7.1 3.31-14.38 4.54-22.11 3.2.9.1 2.35-.4 3.53-.82a20 20 0 0 1 1.22-.4c1.8-.5 3.47-1.12 5.11-2.02a53.85 53.85 0 0 0 9.18-6.42c-1.37.58-2.6 1.42-3.84 2.27-1.23.83-2.46 1.67-3.83 2.27-2.28 1-4.54 1.53-7.03 1.77-5.46.53-12-.72-16.72-3.6-5.5-3.32-8.54-9.04-9.99-15.13-1.68-7.06-.63-15.04 3.33-21.07.13 2.14 4.43 3.06 7.92 2.53 3.77-.59 6.95-6.52 10.9-13.93 6.19-11.55 14.28-26.67 29.52-30.64 19.96-5.2 34.21 3.87 35.42 4.66 1.22.78 1.8.63 2.93.32l.68-.17c6.35-1.52 13.26-2.2 19.7-.92 6.35 1.26 12.43 4.54 17.57 8.38ZM71.93 110.75l.2.04a1.6 1.6 0 0 1-.2-.04ZM79 156.2c.8-1.53 1.57-3.06 2.32-4.6A56.2 56.2 0 0 0 109 180.6v9.01a54.4 54.4 0 0 1-7.73 1.97c-9 1.62-34.32-3.53-45.44-11.98-.85-.65-.42-1.92.67-2 11.66-.8 17.63-12.13 22.4-21.2l.1-.2ZM157 183.05v-2.44c6.95-3.3 13.11-8 18.13-13.71.71 2.24 1.75 4.33 3.43 5.79 1.32 1.14 3.48 1.12 5.34 1.1l1.2.01c1.67.05 3.34.06 5.02-.02.83-.03 1.2 1.02.53 1.5a39.2 39.2 0 0 1-3.64 2.07 29.3 29.3 0 0 1-7.98 2.74c-1.92.34-3.82.4-5.66.18a9.84 9.84 0 0 0 1.7 1.94c1.41 1.22 3.72 1.2 5.7 1.19h1.28c1.79.05 3.58.06 5.36-.02.9-.04 1.3 1.09.57 1.6a41.97 41.97 0 0 1-3.88 2.22 31.24 31.24 0 0 1-8.53 2.92c-5.5.97-10.86-.18-15.19-3.7a24.9 24.9 0 0 1-3.38-3.37Z" fill="#b58143"></path><path d="M81.32 151.6c-.75 1.54-1.51 3.07-2.31 4.6l-.1.18c-4.77 9.08-10.74 20.42-22.4 21.22-1.09.07-1.52 1.34-.67 1.99 11.12 8.45 36.43 13.6 45.44 11.98a54.4 54.4 0 0 0 7.73-1.96v-8.99a56.2 56.2 0 0 1-27.68-29ZM157 180.61v2.44a24.9 24.9 0 0 0 3.38 3.36c4.33 3.53 9.7 4.68 15.2 3.71a31.24 31.24 0 0 0 8.51-2.92 41.97 41.97 0 0 0 3.89-2.22c.72-.51.32-1.64-.57-1.6-1.78.08-3.57.07-5.35.02h-1.29c-1.98.01-4.29.03-5.7-1.2a9.84 9.84 0 0 1-1.7-1.93c1.84.22 3.74.16 5.66-.18a29.3 29.3 0 0 0 7.98-2.73 39.2 39.2 0 0 0 3.64-2.08c.68-.48.3-1.53-.53-1.5a69.9 69.9 0 0 1-5.02.02h-1.2c-1.86.01-4.02.03-5.34-1.11-1.69-1.46-2.72-3.55-3.43-5.8A56.18 56.18 0 0 1 157 180.62Z" fill="#000" fill-opacity=".16"></path></g><g transform="translate(49 72)"></g><g transform="translate(62 42)"></g></g></g></svg>