<svg xmlns="http://www.w3.org/2000/svg" viewBox="0 0 256 256" shape-rendering="geometricPrecision"><circle cx="128" cy="128" r="128" fill="#6BCB77"/><path d="M40 256 C 40 188 84 168 128 168 C 172 168 216 188 216 256 Z" fill="#3a4250"/><path d="M104 162 q0 16 24 20 q24 -4 24 -20 Z" fill="#d9a784"/><ellipse cx="128" cy="118" rx="50.0" ry="58.0" fill="#f4c9a8"/><ellipse cx="86" cy="124" rx="5.5" ry="7" fill="#f4c9a8"/><ellipse cx="170" cy="124" rx="5.5" ry="7" fill="#f4c9a8"/><path d="M80 100 q4 -34 48 -38 q44 4 48 38 q-2 14 -10 18 q-8 -14 -22 -16 q-10 -10 -28 -6 q-18 4 -24 14 q-8 0 -12 8 q-2 -8 0 -18 Z" fill="#6b3f24"/><path d="M101 104 q9 -4 18 0" stroke="#4a2c18" stroke-width="3.2" fill="none" stroke-linecap="round"/><path d="M137 104 q9 -4 18 0" stroke="#4a2c18" stroke-width="3.2" fill="none" stroke-linecap="round"/><ellipse cx="110" cy="118" rx="3.6" ry="5" fill="#1f1a16"/><ellipse cx="146" cy="118" rx="3.6" ry="5" fill="#1f1a16"/><path d="M126 128 q-3 8 0 12 q3 2 5 0" stroke="#d9a784" stroke-width="2" fill="none" stroke-linecap="round"/><path d="M118 144 q10 4 20 0" stroke="#3a1f1a" stroke-width="2.6" fill="none" stroke-linecap="round"/><circle cx="110" cy="118" r="12" fill="none" stroke="#1f1a16" stroke-width="2.5"/><circle cx="146" cy="118" r="12" fill="none" stroke="#1f1a16" stroke-width="2.5"/><path d="M122 118 h12" stroke="#1f1a16" stroke-width="2.5"/></svg>