<svg xmlns="http://www.w3.org/2000/svg" viewBox="0 0 280 280" fill="none" shape-rendering="auto"><metadata xmlns:rdf="http://www.w3.org/1999/02/22-rdf-syntax-ns#" xmlns:xsi="http://www.w3.org/2001/XMLSchema-instance" xmlns:dc="http://purl.org/dc/elements/1.1/" xmlns:dcterms="http://purl.org/dc/terms/"><rdf:RDF><rdf:Description><dc:title>Avataaars</dc:title><dc:creator>Pablo Stanley</dc:creator><dc:source xsi:type="dcterms:URI">https://avataaars.com/</dc:source><dcterms:license xsi:type="dcterms:URI">https://avataaars.com/</dcterms:license><dc:rights>Remix of „Avataaars” (https://avataaars.com/) by „Pablo Stanley”, licensed under „Free for personal and commercial use” (https://avataaars.com/)</dc:rights></rdf:Description></rdf:RDF></metadata><mask id="viewboxMask"><rect width="280" height="280" rx="0" ry="0" x="0" y="0" fill="#fff" /></mask><g mask="url(#viewboxMask)"><rect fill="#b6e3f4" width="280" height="280" x="0" y="0" /><g transform="translate(8)"><path d="M132 36a56 56 0 0 0-56 56v6.17A12 12 0 0 0 66 110v14a12 12 0 0 0 10.3 11.88 56.04 56.04 0 0 0 31.7 44.73v18.4h-4a72 72 0 0 0-72 72v9h200v-9a72 72 0 0 0-72-72h-4v-18.39a56.04 56.04 0 0 0 31.7-44.73A12 12 0 0 0 198 124v-14a12 12 0 0 0-10-11.83V92a56 56 0 0 0-56-56Z" fill="#edb98a"/><path d="M108 180.61v8a55.79 55.79 0 0 0 24 5.39c8.59 0 16.73-1.93 24-5.39v-8a55.79 55.79 0 0 1-24 5.39 55.79 55.79 0 0 1-24-5.39Z" fill="#000" fill-opacity=".1"/><g transform="translate(0 170)"><path d="M132.5 51.83c18.5 0 33.5-9.62 33.5-21.48 0-.36-.01-.7-.04-1.06A72 72 0 0 1 232 101.04V110H32v-8.95a72 72 0 0 1 67.05-71.83c-.03.37-.05.75-.05 1.13 0 11.86 15 21.48 33.5 21.48Z" fill="#929598"/><path d="M132.5 58.76c21.89 0 39.63-12.05 39.63-26.91 0-.6-.02-1.2-.08-1.8-2-.33-4.03-.59-6.1-.76.04.35.05.7.05 1.06 0 11.86-15 21.48-33.5 21.48S99 42.2 99 30.35c0-.38.02-.76.05-1.13-2.06.14-4.08.36-6.08.67-.07.65-.1 1.3-.1 1.96 0 14.86 17.74 26.91 39.63 26.91Z" fill="#000" fill-opacity=".08"/></g><g transform="translate(78 134)"><rect x="22" y="7" width="64" height="26" rx="13" fill="#000" fill-opacity=".6"/><rect x="24" y="9" width="60" height="22" rx="11" fill="#fff"/><path d="M24.18 18H32V9.41A11 11 0 0 1 35 9h1v9h9V9h4v9h9V9h4v9h9V9h2c.68 0 1.35.06 2 .18V18h8.82l.05.28v3.44l-.05.28H75v8.82c-.65.12-1.32.18-2 .18h-2v-9h-9v9h-4v-9h-9v9h-4v-9h-9v9h-1a11 11 0 0 1-3-.41V22h-7.82a11.06 11.06 0 0 1 0-4Z" fill="#E6E6E6"/></g><g transform="translate(104 122)"><path fill-rule="evenodd" clip-rule="evenodd" d="M16 8c0 4.42 5.37 8 12 8s12-3.58 12-8" fill="#000" fill-opacity=".16"/></g><g transform="translate(76 90)"><path d="M16.16 22.45c1.85-3.8 6-6.45 10.84-6.45 4.81 0 8.96 2.63 10.82 6.4.55 1.13-.24 2.05-1.03 1.37a15.05 15.05 0 0 0-9.8-3.43c-3.73 0-7.12 1.24-9.55 3.23-.9.73-1.82-.01-1.28-1.12ZM74.16 22.45c1.85-3.8 6-6.45 10.84-6.45 4.81 0 8.96 2.63 10.82 6.4.55 1.13-.24 2.05-1.03 1.37a15.05 15.05 0 0 0-9.8-3.43c-3.74 0-7.13 1.24-9.56 3.23-.9.73-1.82-.01-1.28-1.12Z" fill-rule="evenodd" clip-rule="evenodd" fill="#000" fill-opacity=".6"/></g><g transform="translate(76 82)"><path d="M15.98 17.13C17.48 7.6 30.06 1.1 39.16 5.3a2 2 0 1 0 1.68-3.63c-11.5-5.3-26.9 2.66-28.82 14.84a2 2 0 0 0 3.96.63ZM96.02 17.13C94.52 7.6 81.94 1.1 72.84 5.3a2 2 0 1 1-1.68-3.63c11.5-5.3 26.9 2.66 28.82 14.84a2 2 0 0 1-3.96.63Z" fill="#000" fill-opacity=".6"/></g><g transform="translate(-1)"><path d="M40 145c-.62-30.84 28.32-95.2 39-108 7.92-9.5 29.7-17.45 54-17 24.3.45 46.86 5.81 55 16 12.32 15.43 37.87 74.08 38 109 .1 24.8-9.54 49.66-23 51-7.6.76-17.26-.23-28.86-1.4-5.3-.55-11.02-1.13-17.14-1.6V180.6A56 56 0 0 0 189 130v-28.44a130.34 130.34 0 0 1-26.9-19.88c3.35 6.24 7.19 11.9 11.51 16.2-30.57-8.59-51.71-26.16-64.38-39.94C103.39 69.02 92.96 85.23 77 97.57V130a56 56 0 0 0 32 50.61v13.14c-6.95.95-13.41 2.16-19.36 3.27-10.85 2.02-19.98 3.73-27.26 2.98-14.22-1.47-21.88-30.2-22.38-55Z" fill="#2c1b18"/></g><g transform="translate(49 72)"></g><g transform="translate(62 42)"><g fill-rule="evenodd" clip-rule="evenodd"><path d="M111.71 53.49c4.67.16 8 .88 10.55 4.52 3.01.15 6.25.37 8.98 1.63 3.39 1.56 3.9 5.1-.36 5.59-1.86.2-3.72-.12-5.55-.45l-.19-.03-.33-.06c1.1 9.46-6.21 20.87-14.23 24.35C99.6 93.8 87.34 88.53 81.53 79c-2.62-4.3-4.14-10.51-4.46-15.86-.42-.2-.83-.44-1.23-.67-.38-.22-.76-.44-1.12-.61-2-.98-5.34-1.1-7.5 0-.35.17-.7.37-1.05.58-.42.25-.86.5-1.3.72C64.53 68.5 63.01 74.7 60.4 79c-5.8 9.53-18.07 14.8-29.05 10.04-8.02-3.48-15.33-14.89-14.23-24.35l-.33.06-.2.03c-1.83.33-3.7.66-5.55.45-4.27-.5-3.74-4.03-.36-5.6 2.72-1.25 5.96-1.47 8.97-1.62 2.55-3.63 5.88-4.36 10.55-4.52l23.29-.46c5.19-.14 9.72 0 11.03 4.6a18.7 18.7 0 0 1 6.35-1.25c1.86 0 4.35.45 6.5 1.28 1.3-4.64 5.83-4.77 11.03-4.63l23.3.46Zm-24.03 6.78c-2.37.03-3.5.42-3.9 2.9-.4 2.5 0 5.31.46 7.78.73 3.77 1.92 7.46 4.71 10.22a16.24 16.24 0 0 0 8.32 4.34c.11.03.54.1.96.16.63.1 1.23.18.71.13l-.1-.01h-.06a47.08 47.08 0 0 1 .16 0c3.73.4 7.72.32 10.82-2.04 3.53-2.7 5.95-6.95 7.01-11.2.63-2.48 1.93-8.42-.46-10.4-2.73-2.28-28.63-1.88-28.63-1.88Zm-33.43 0c2.37.03 3.5.42 3.9 2.9.4 2.5 0 5.32-.46 7.78-.73 3.77-1.92 7.46-4.71 10.22a16.23 16.23 0 0 1-8.32 4.35l-.96.15c-.64.1-1.26.19-.68.13-3.73.4-7.74.32-10.85-2.05-3.53-2.69-5.95-6.95-7.01-11.2-.63-2.48-1.93-8.42.46-10.4 2.73-2.28 28.63-1.87 28.63-1.87Zm-10.93 25.5Z" fill="#000" fill-opacity=".1"/><path d="M111.71 51.49c4.67.16 8 .88 10.55 4.52 3.01.15 6.25.37 8.98 1.63 3.39 1.56 3.9 5.1-.36 5.59-1.86.2-3.72-.12-5.55-.45l-.19-.03-.33-.06c1.1 9.46-6.21 20.87-14.23 24.35C99.6 91.8 87.34 86.53 81.53 77c-2.62-4.3-4.14-10.51-4.46-15.86-.42-.2-.83-.44-1.23-.67-.38-.22-.76-.44-1.12-.61-2-.98-5.34-1.1-7.5 0-.35.17-.7.37-1.05.58-.42.25-.86.5-1.3.72C64.53 66.5 63.01 72.7 60.4 77c-5.8 9.53-18.07 14.8-29.05 10.04-8.02-3.48-15.33-14.89-14.23-24.35-.11 0-.22.03-.33.05l-.2.03c-1.83.33-3.7.66-5.55.45-4.27-.5-3.74-4.03-.36-5.6 2.72-1.25 5.96-1.47 8.97-1.62 2.55-3.63 5.88-4.36 10.55-4.52l23.29-.46c5.19-.14 9.72 0 11.03 4.6a18.7 18.7 0 0 1 6.35-1.25c1.86 0 4.35.45 6.5 1.28 1.3-4.64 5.83-4.77 11.03-4.63l23.3.46Zm-24.03 6.78c-2.37.03-3.5.42-3.9 2.9-.4 2.5 0 5.31.46 7.78.73 3.77 1.92 7.46 4.71 10.22a16.24 16.24 0 0 0 8.32 4.34c.11.03.54.1.96.16.63.1 1.23.18.71.13l-.1-.01h-.06a47.08 47.08 0 0 1 .16 0c3.73.4 7.72.32 10.82-2.04 3.53-2.7 5.95-6.95 7.01-11.2.63-2.48 1.93-8.42-.46-10.4-2.73-2.28-28.63-1.88-28.63-1.88Zm-33.43 0c2.37.03 3.5.42 3.9 2.9.4 2.5 0 5.32-.46 7.78-.73 3.77-1.92 7.46-4.71 10.22a16.23 16.23 0 0 1-8.32 4.35l-.96.15c-.64.1-1.26.19-.68.13-3.73.4-7.74.32-10.85-2.05-3.53-2.69-5.95-6.95-7.01-11.2-.63-2.48-1.93-8.42.46-10.4 2.73-2.28 28.63-1.87 28.63-1.87Zm-10.93 25.5Z" fill="#262e33"/></g></g></g></g></svg>