<svg xmlns="http://www.w3.org/2000/svg" viewBox="0 0 280 280" fill="none" shape-rendering="auto"><metadata xmlns:rdf="http://www.w3.org/1999/02/22-rdf-syntax-ns#" xmlns:xsi="http://www.w3.org/2001/XMLSchema-instance" xmlns:dc="http://purl.org/dc/elements/1.1/" xmlns:dcterms="http://purl.org/dc/terms/"><rdf:RDF><rdf:Description><dc:title>Avataaars</dc:title><dc:creator>Pablo Stanley</dc:creator><dc:source xsi:type="dcterms:URI">https://avataaars.com/</dc:source><dcterms:license xsi:type="dcterms:URI">https://avataaars.com/</dcterms:license><dc:rights>Remix of „Avataaars” (https://avataaars.com/) by „Pablo Stanley”, licensed under „Free for personal and commercial use” (https://avataaars.com/)</dc:rights></rdf:Description></rdf:RDF></metadata><mask id="viewboxMask"><rect width="280" height="280" rx="0" ry="0" x="0" y="0" fill="#fff" /></mask><g mask="url(#viewboxMask)"><rect fill="#b6e3f4" width="280" height="280" x="0" y="0" /><g transform="translate(8)"><path d="M132 36a56 56 0 0 0-56 56v6.17A12 12 0 0 0 66 110v14a12 12 0 0 0 10.3 11.88 56.04 56.04 0 0 0 31.7 44.73v18.4h-4a72 72 0 0 0-72 72v9h200v-9a72 72 0 0 0-72-72h-4v-18.39a56.04 56.04 0 0 0 31.7-44.73A12 12 0 0 0 198 124v-14a12 12 0 0 0-10-11.83V92a56 56 0 0 0-56-56Z" fill="#edb98a"/><path d="M108 180.61v8a55.79 55.79 0 0 0 24 5.39c8.59 0 16.73-1.93 24-5.39v-8a55.79 55.79 0 0 1-24 5.39 55.79 55.79 0 0 1-24-5.39Z" fill="#000" fill-opacity=".1"/><g transform="translate(0 170)"><path d="M132.5 51.83c18.5 0 33.5-9.62 33.5-21.48 0-.36-.01-.7-.04-1.06A72 72 0 0 1 232 101.04V110H32v-8.95a72 72 0 0 1 67.05-71.83c-.03.37-.05.75-.05 1.13 0 11.86 15 21.48 33.5 21.48Z" fill="#E6E6E6"/><path d="M132.5 58.76c21.89 0 39.63-12.05 39.63-26.91 0-.6-.02-1.2-.08-1.8-2-.33-4.03-.59-6.1-.76.04.35.05.7.05 1.06 0 11.86-15 21.48-33.5 21.48S99 42.2 99 30.35c0-.38.02-.76.05-1.13-2.06.14-4.08.36-6.08.67-.07.65-.1 1.3-.1 1.96 0 14.86 17.74 26.91 39.63 26.91Z" fill="#000" fill-opacity=".16"/><path d="M100.78 29.12 101 28c-2.96.05-6 1-6 1l-.42.66A72.01 72.01 0 0 0 32 101.06V110h74s-10.7-51.56-5.24-80.8l.02-.08ZM158 110s11-53 5-82c2.96.05 6 1 6 1l.42.66a72.01 72.01 0 0 1 62.58 71.4V110h-74Z" fill="#262e33"/><path d="M101 28c-6 29 5 82 5 82H90L76 74l6-9-6-6 19-30s3.04-.95 6-1ZM163 28c6 29-5 82-5 82h16l14-36-6-9 6-6-19-30s-3.04-.95-6-1Z" fill-rule="evenodd" clip-rule="evenodd" fill="#000" fill-opacity=".15"/><path d="m183.42 85.77.87-2.24 6.27-4.7a4 4 0 0 1 4.85.05l6.6 5.12-18.59 1.77Z" fill="#E6E6E6"/></g><g transform="translate(78 134)"><path fill-rule="evenodd" clip-rule="evenodd" d="M34 30.4C35.14 19.9 38.24 11 54 11c15.76 0 18.92 8.96 20 19.5.08.84-.83 1.5-1.96 1.5-6.69 0-9.37-1.5-18.05-1.5-8.7 0-13.24 1.5-17.9 1.5-1.15 0-2.2-.55-2.1-1.6Z" fill="#000" fill-opacity=".7"/><path d="M67.86 15.1c-.8.57-1.8.9-2.86.9H44c-1.3 0-2.49-.5-3.38-1.31C43.56 12.38 47.8 11 54 11c6.54 0 10.9 1.54 13.86 4.1Z" fill="#fff"/><path d="M42 25a6 6 0 0 0-6 6v7a6 6 0 0 0 12 0v-2h.08a6 6 0 0 1 11.84 0H60a6 6 0 0 0 12 0v-5a6 6 0 0 0-6-6H42Z" fill="#7BB24B"/><path d="M72 31a6 6 0 0 0-6-6H42a6 6 0 0 0-6 6v6a6 6 0 0 0 12 0v-2h.08a6 6 0 0 1 11.84 0H60a6 6 0 0 0 12 0v-4Z" fill="#88C553"/></g><g transform="translate(104 122)"><path fill-rule="evenodd" clip-rule="evenodd" d="M16 8c0 4.42 5.37 8 12 8s12-3.58 12-8" fill="#000" fill-opacity=".16"/></g><g transform="translate(76 90)"><path d="M35.96 10c-2.55 0-5.08 1.98-6.46 3.82-1.39-1.84-3.9-3.82-6.46-3.82-5.49 0-9.04 3.33-9.04 7.64 0 5.73 4.41 9.13 9.04 12.74 1.66 1.23 4.78 4.4 5.17 5.1.38.68 2.1.7 2.58 0 .48-.73 3.51-3.87 5.17-5.1 4.63-3.6 9.04-7 9.04-12.74 0-4.3-3.55-7.64-9.04-7.64ZM88.96 10c-2.55 0-5.08 1.98-6.46 3.82-1.39-1.84-3.9-3.82-6.46-3.82-5.49 0-9.04 3.33-9.04 7.64 0 5.73 4.41 9.13 9.04 12.74 1.65 1.23 4.78 4.4 5.17 5.1.38.68 2.1.7 2.58 0 .48-.73 3.51-3.87 5.17-5.1 4.63-3.6 9.04-7 9.04-12.74 0-4.3-3.55-7.64-9.04-7.64Z" fill="#FF5353" fill-opacity=".8"/></g><g transform="translate(76 82)"><path d="M15.6 14.16c4.49-6.32 14-9.5 23.75-6.36a2 2 0 1 0 1.23-3.81c-11.41-3.68-22.74.1-28.25 7.85a2 2 0 1 0 3.26 2.32ZM96.38 21.16c-3.92-5.51-14.65-8.6-23.9-6.33a2 2 0 0 1-.95-3.88c10.74-2.64 23.17.94 28.1 7.9a2 2 0 1 1-3.25 2.3Z" fill="#000" fill-opacity=".6"/></g><g transform="translate(-1)"><path fill-rule="evenodd" clip-rule="evenodd" d="M180.15 39.92c-2.76-2.82-5.96-5.21-9.08-7.61-.69-.53-1.39-1.05-2.06-1.6-.15-.12-1.72-1.24-1.9-1.66-.45-.99-.19-.22-.12-1.4.08-1.5 3.13-5.73.85-6.7-1-.43-2.8.7-3.75 1.08a59.56 59.56 0 0 1-5.73 1.9c.93-1.85 2.7-5.57-.63-4.58-2.6.78-5.03 2.77-7.64 3.7.86-1.4 4.32-5.8 1.2-6.05-.98-.07-3.8 1.75-4.86 2.14a55.81 55.81 0 0 1-9.63 2.51c-11.2 2.02-24.3 1.45-34.65 6.54-8 3.93-15.88 10.03-20.5 17.8-4.44 7.48-6.1 15.67-7.03 24.25-.69 6.3-.74 12.8-.42 19.12.1 2.07.34 11.61 3.34 8.72 1.5-1.44 1.49-7.25 1.87-9.22.75-3.91 1.47-7.85 2.72-11.64 2.2-6.68 4.81-13.8 10.3-18.4 3.53-2.94 6.01-6.93 9.39-9.9 1.51-1.35.36-1.2 2.8-1.03 1.63.12 3.28.16 4.92.2 3.8.1 7.6.08 11.4.1 7.64 0 15.25.12 22.89-.28 3.4-.18 6.8-.28 10.18-.6 1.9-.17 5.25-1.38 6.8-.45 1.43.84 2.91 3.61 3.94 4.75 2.41 2.67 5.3 4.72 8.12 6.92 5.9 4.57 8.87 10.33 10.66 17.48 1.79 7.13 1.29 13.75 3.5 20.76.38 1.24 1.4 3.36 2.67 1.46.24-.36.18-2.3.18-3.42 0-4.52 1.14-7.91 1.13-12.46-.06-13.83-.5-31.87-10.85-42.44Z" fill="#e8e1e1"/></g><g transform="translate(49 72)"><path fill-rule="evenodd" clip-rule="evenodd" d="M84.5 93.84c-11.5.38-16.64 5.88-20.5.29-2.91-4.2-1.7-11.26 1.01-15.23 3.86-5.65 9.1-2.92 14.95-3.56 1.6-.18 3.2-.62 4.54-1.34 1.36.72 2.95 1.16 4.55 1.34 5.85.64 11.09-2.09 14.94 3.56 2.72 3.97 3.93 11.03 1.03 15.23-3.87 5.6-9-.67-20.52-.29ZM140.4 26c-3.43 14.07-5 28.43-7.5 42.67-.5 2.97-1.07 5.93-1.68 8.88-.12.62-.25 2.92-.86 3.21-1.85.89-5.62-3.81-6.63-4.87-2.53-2.67-5.05-5.36-8.13-7.45a43.7 43.7 0 0 0-21.13-7.32c-3.18-.25-7.47.18-10.47 2-3-1.82-7.3-2.25-10.47-2-7.6.6-14.9 3.1-21.13 7.32-3.09 2.09-5.6 4.78-8.13 7.45-1 1.06-4.78 5.76-6.63 4.87-.61-.29-.74-2.6-.86-3.21-.6-2.95-1.17-5.91-1.7-8.88-2.47-14.24-4.05-28.6-7.47-42.67-1 0-1.87 18.75-1.98 20.5-.46 7.09-.98 14.03-.3 21.13 1.16 12.24 2.37 27.6 11.7 36.96 8.44 8.45 20.68 10.22 31.24 15.55 1.36.69 3.16 1.54 5.1 2.23 2.06 1.56 6.12 2.63 10.8 2.63 4.91 0 9.15-1.17 11.08-2.86 1.7-.65 3.27-1.39 4.48-2 10.56-5.33 22.8-7.1 31.24-15.55 9.33-9.36 10.54-24.72 11.7-36.96.68-7.1.16-14.04-.3-21.14-.1-1.74-.98-20.5-1.98-20.5Z" fill="#e8e1e1"/></g><g transform="translate(62 42)"><g fill-rule="evenodd" clip-rule="evenodd"><path d="M38.5 52c-21.3 0-28.85 5.1-29.55 5.77A2.92 2.92 0 0 0 6 60.66v2.88c0 1.6 1.32 2.89 2.95 2.89 0 0 5.91 0 5.91 2.88 0 .44.07.65.19.68-.04.82-.05 1.66-.05 2.5C15 85.34 23.31 93 37.24 93H40c14.72 0 25-8.43 25-20.5 0-1.5-.04-3-.17-4.46l1.58-.77c.58-.29 1.21-.5 1.9-.64 1.85-.38 3.95-.22 5.99.28.73.18 1.26.35 1.5.45l1.38.55c-.14 1.5-.18 3.04-.18 4.6C77 85.34 85.31 93 99.24 93H102c14.72 0 25-8.43 25-20.5 0-1.54-.04-3.07-.18-4.56 1.74-1.51 6.22-1.51 6.22-1.51a2.92 2.92 0 0 0 2.96-2.89v-2.88c0-1.6-1.32-2.89-2.96-2.89-.69-.67-8.25-5.77-29.54-5.77H100.53c-1.8 0-3.44.07-4.97.2-9.54.54-14.68 2.15-19.92 4.7a17 17 0 0 1-4.56.87 17.01 17.01 0 0 1-4.81-.91l-.42-.2v-.01c-4.94-2.42-8.43-4.13-20.78-4.55a61.2 61.2 0 0 0-3.6-.1H38.5ZM19 73.5C19 64.84 19 58 38.39 58h3.22C61 58 61 64.84 61 73.5 61 82.63 52.36 89 40 89h-3.03C22.12 89 19 80.57 19 73.5Zm62 0c0-8.66 0-15.5 19.39-15.5h3.22C123 58 123 64.84 123 73.5c0 9.13-8.64 15.5-21 15.5h-3.03C84.12 89 81 80.57 81 73.5Z" fill="#000" fill-opacity=".1"/><path d="M38.5 50c-21.3 0-28.85 5.1-29.55 5.77A2.92 2.92 0 0 0 6 58.66v2.88c0 1.6 1.32 2.89 2.95 2.89 0 0 5.91 0 5.91 2.88 0 .44.07.65.19.68-.04.82-.05 1.66-.05 2.5C15 83.34 23.31 91 37.24 91H40c14.72 0 25-8.43 25-20.5 0-1.5-.04-3-.17-4.46l1.58-.77c.58-.29 1.21-.5 1.9-.64 1.85-.38 3.95-.22 5.99.28.73.18 1.26.35 1.5.45l1.38.55c-.14 1.5-.18 3.04-.18 4.6C77 83.34 85.31 91 99.24 91H102c14.72 0 25-8.43 25-20.5 0-1.54-.04-3.07-.18-4.56 1.74-1.51 6.22-1.51 6.22-1.51a2.92 2.92 0 0 0 2.96-2.89v-2.88c0-1.6-1.32-2.89-2.96-2.89-.69-.67-8.25-5.77-29.54-5.77H100.53c-1.8 0-3.44.07-4.97.2-9.54.54-14.68 2.15-19.92 4.7a17 17 0 0 1-4.56.87 17.01 17.01 0 0 1-4.81-.91l-.42-.2v-.01c-4.94-2.42-8.43-4.13-20.78-4.55a61.2 61.2 0 0 0-3.6-.1H38.5ZM19 71.5C19 62.84 19 56 38.39 56h3.22C61 56 61 62.84 61 71.5 61 80.63 52.36 87 40 87h-3.03C22.12 87 19 78.57 19 71.5Zm62 0c0-8.66 0-15.5 19.39-15.5h3.22C123 56 123 62.84 123 71.5c0 9.13-8.64 15.5-21 15.5h-3.03C84.12 87 81 78.57 81 71.5Z" fill="#25557c"/></g></g></g></g></svg>