<svg xmlns="http://www.w3.org/2000/svg" viewBox="0 0 256 256" shape-rendering="geometricPrecision"><circle cx="128" cy="128" r="128" fill="#FF9F40"/><path d="M40 256 C 40 188 84 168 128 168 C 172 168 216 188 216 256 Z" fill="#2a8a5f"/><path d="M104 162 q0 16 24 20 q24 -4 24 -20 Z" fill="#5d3924"/><ellipse cx="128" cy="118" rx="50.0" ry="58.0" fill="#7a4a30"/><ellipse cx="86" cy="124" rx="5.5" ry="7" fill="#7a4a30"/><ellipse cx="170" cy="124" rx="5.5" ry="7" fill="#7a4a30"/><path d="M86 130 q4 36 42 42 q38 -6 42 -42 q-6 22 -42 24 q-36 -2 -42 -24 Z" fill="#1f1612"/><path d="M82 96 q-4 -30 16 -38 q6 -8 18 -6 q10 -8 24 -4 q14 -6 24 4 q14 -2 18 8 q18 10 14 36 q-2 8 -8 12 q-4 -10 -14 -12 q-6 -8 -16 -6 q-10 -10 -22 -6 q-12 -6 -22 4 q-12 -2 -18 6 q-8 2 -14 12 q-8 -4 -10 -10 Z" fill="#1f1612"/><circle cx="92" cy="84" r="6" fill="#1f1612"/><circle cx="108" cy="74" r="6" fill="#1f1612"/><circle cx="128" cy="72" r="7" fill="#1f1612"/><circle cx="148" cy="74" r="6" fill="#1f1612"/><circle cx="164" cy="84" r="6" fill="#1f1612"/><path d="M101 104 q9 -4 18 0" stroke="#1f1612" stroke-width="3.2" fill="none" stroke-linecap="round"/><path d="M137 104 q9 -4 18 0" stroke="#1f1612" stroke-width="3.2" fill="none" stroke-linecap="round"/><ellipse cx="110" cy="118" rx="3.6" ry="5" fill="#1f1a16"/><ellipse cx="146" cy="118" rx="3.6" ry="5" fill="#1f1a16"/><path d="M126 128 q-3 8 0 12 q3 2 5 0" stroke="#5d3924" stroke-width="2" fill="none" stroke-linecap="round"/><path d="M116 144 q12 10 24 0" stroke="#2a1812" stroke-width="2.6" fill="none" stroke-linecap="round"/></svg>