<svg xmlns="http://www.w3.org/2000/svg" viewBox="0 0 256 256" shape-rendering="geometricPrecision"><circle cx="128" cy="128" r="128" fill="#5B8DEF"/><path d="M72 124 q-4 -52 56 -64 q60 12 56 64 q6 60 0 132 l-32 0 q-4 -50 -10 -80 q-6 30 -10 80 l-32 0 q-6 -72 0 -132 Z" fill="#181210"/><path d="M40 256 C 40 188 84 168 128 168 C 172 168 216 188 216 256 Z" fill="#3a8a5a"/><path d="M104 162 q0 16 24 20 q24 -4 24 -20 Z" fill="#8a5a36"/><ellipse cx="128" cy="118" rx="50.0" ry="58.0" fill="#b07a50"/><ellipse cx="86" cy="124" rx="5.5" ry="7" fill="#b07a50"/><ellipse cx="170" cy="124" rx="5.5" ry="7" fill="#b07a50"/><path d="M74 92 q54 -16 108 0 l-2 14 q-52 -14 -104 0 Z" fill="#d94a3a"/><path d="M74 92 q54 -16 108 0" stroke="#a8311f" stroke-width="2" fill="none"/><circle cx="100" cy="92" r="2.6" fill="#fff3d4"/><circle cx="128" cy="88" r="2.6" fill="#fff3d4"/><circle cx="156" cy="92" r="2.6" fill="#fff3d4"/><path d="M101 104 q9 -4 18 0" stroke="#181210" stroke-width="3.2" fill="none" stroke-linecap="round"/><path d="M137 104 q9 -4 18 0" stroke="#181210" stroke-width="3.2" fill="none" stroke-linecap="round"/><ellipse cx="110" cy="118" rx="3.6" ry="5" fill="#181210"/><ellipse cx="146" cy="118" rx="3.6" ry="5" fill="#181210"/><path d="M126 128 q-3 8 0 12 q3 2 5 0" stroke="#8a5a36" stroke-width="2" fill="none" stroke-linecap="round"/><path d="M116 144 q12 10 24 0" stroke="#2a1610" stroke-width="2.6" fill="none" stroke-linecap="round"/></svg>