<svg xmlns="http://www.w3.org/2000/svg" viewBox="0 0 256 256" shape-rendering="geometricPrecision"><circle cx="128" cy="128" r="128" fill="#607D8B"/><path d="M40 256 C 40 188 84 168 128 168 C 172 168 216 188 216 256 Z" fill="#1a1a1a"/><path d="M104 162 q0 16 24 20 q24 -4 24 -20 Z" fill="#4d2c1b"/><ellipse cx="128" cy="118" rx="50.0" ry="58.0" fill="#6b4028"/><ellipse cx="86" cy="124" rx="5.5" ry="7" fill="#6b4028"/><ellipse cx="170" cy="124" rx="5.5" ry="7" fill="#6b4028"/><path d="M80 100 q4 -34 48 -38 q44 4 48 38 q-2 8 -6 12 q-12 -10 -42 -10 q-30 0 -42 10 q-4 -4 -6 -12 Z" fill="#1a1310"/><circle cx="84" cy="138" r="2.4" fill="#cfc7b8"/><path d="M101 104 q9 -4 18 0" stroke="#1a1310" stroke-width="3.2" fill="none" stroke-linecap="round"/><path d="M137 104 q9 -4 18 0" stroke="#1a1310" stroke-width="3.2" fill="none" stroke-linecap="round"/><ellipse cx="110" cy="118" rx="3.6" ry="5" fill="#1f1a16"/><ellipse cx="146" cy="118" rx="3.6" ry="5" fill="#1f1a16"/><path d="M126 128 q-3 8 0 12 q3 2 5 0" stroke="#4d2c1b" stroke-width="2" fill="none" stroke-linecap="round"/><path d="M118 144 q10 4 20 0" stroke="#2a1610" stroke-width="2.6" fill="none" stroke-linecap="round"/></svg>