<svg xmlns="http://www.w3.org/2000/svg" viewBox="0 0 256 256" shape-rendering="geometricPrecision"><circle cx="128" cy="128" r="128" fill="#FFC542"/><path d="M68 130 q-2 -56 60 -68 q62 12 60 68 q2 70 -4 126 l-40 0 q-2 -60 -16 -90 q-14 30 -16 90 l-40 0 q-6 -56 -4 -126 Z" fill="#1a1310"/><path d="M40 256 C 40 188 84 168 128 168 C 172 168 216 188 216 256 Z" fill="#b8423a"/><path d="M104 162 q0 16 24 20 q24 -4 24 -20 Z" fill="#d4a878"/><ellipse cx="128" cy="118" rx="50.0" ry="58.0" fill="#f2c99b"/><ellipse cx="86" cy="124" rx="5.5" ry="7" fill="#f2c99b"/><ellipse cx="170" cy="124" rx="5.5" ry="7" fill="#f2c99b"/><path d="M78 96 q4 -28 50 -32 q46 4 50 32 q-2 18 -10 26 q-8 -16 -22 -18 q-2 14 -18 16 q-16 -2 -18 -16 q-14 2 -22 18 q-8 -8 -10 -26 Z" fill="#1a1310"/><path d="M101 104 q9 -4 18 0" stroke="#1a1310" stroke-width="3.2" fill="none" stroke-linecap="round"/><path d="M137 104 q9 -4 18 0" stroke="#1a1310" stroke-width="3.2" fill="none" stroke-linecap="round"/><ellipse cx="110" cy="118" rx="3.6" ry="5" fill="#1a1310"/><ellipse cx="146" cy="118" rx="3.6" ry="5" fill="#1a1310"/><path d="M126 128 q-3 8 0 12 q3 2 5 0" stroke="#d4a878" stroke-width="2" fill="none" stroke-linecap="round"/><circle cx="96" cy="138" r="6" fill="#ff9a85" opacity="0.55"/><circle cx="160" cy="138" r="6" fill="#ff9a85" opacity="0.55"/><path d="M116 144 q12 10 24 0" stroke="#3a1f1a" stroke-width="2.6" fill="none" stroke-linecap="round"/></svg>