<svg xmlns="http://www.w3.org/2000/svg" viewBox="0 0 256 256" shape-rendering="geometricPrecision"><circle cx="128" cy="128" r="128" fill="#B574E5"/><path d="M40 256 C 40 188 84 168 128 168 C 172 168 216 188 216 256 Z" fill="#3a4a6a"/><path d="M104 162 q0 16 24 20 q24 -4 24 -20 Z" fill="#c89072"/><ellipse cx="128" cy="118" rx="50.0" ry="58.0" fill="#e8b894"/><ellipse cx="86" cy="124" rx="5.5" ry="7" fill="#e8b894"/><ellipse cx="170" cy="124" rx="5.5" ry="7" fill="#e8b894"/><path d="M82 124 q4 46 46 56 q42 -10 46 -56 q-8 26 -46 28 q-38 -2 -46 -28 Z" fill="#f1ece4"/><path d="M108 138 q10 -4 20 0 q10 -4 20 0 q-4 8 -20 8 q-16 0 -20 -8 Z" fill="#f1ece4"/><path d="M80 102 q4 -34 48 -38 q44 4 48 38 q-2 14 -8 18 q-10 -14 -24 -16 q-12 -10 -28 -6 q-14 4 -22 14 q-8 0 -12 8 q-2 -8 -2 -18 Z" fill="#f1ece4"/><path d="M92 130 q4 -2 8 0" stroke="#c89072" stroke-width="1.5" fill="none" stroke-linecap="round"/><path d="M156 130 q4 -2 8 0" stroke="#c89072" stroke-width="1.5" fill="none" stroke-linecap="round"/><path d="M101 104 q9 -4 18 0" stroke="#d4cec2" stroke-width="3.2" fill="none" stroke-linecap="round"/><path d="M137 104 q9 -4 18 0" stroke="#d4cec2" stroke-width="3.2" fill="none" stroke-linecap="round"/><ellipse cx="110" cy="118" rx="3.6" ry="5" fill="#1f1a16"/><ellipse cx="146" cy="118" rx="3.6" ry="5" fill="#1f1a16"/><path d="M118 148 q10 4 20 0" stroke="#3a1f1a" stroke-width="2.4" fill="none" stroke-linecap="round"/></svg>