<svg xmlns="http://www.w3.org/2000/svg" viewBox="0 0 512 512" width="512" height="512"><defs><clipPath id="fc"><circle cx="256" cy="256" r="256"></circle></clipPath></defs><g clip-path="url(#fc)"><svg viewBox="0 0 280 280" width="512" height="512" preserveAspectRatio="xMidYMid meet"><mask id="viewboxMask"><rect width="280" height="280" rx="0" ry="0" x="0" y="0" fill="#fff"></rect></mask><g mask="url(#viewboxMask)"><rect fill="#D94A3A" width="280" height="280" x="0" y="0"></rect><g transform="translate(8)"><path d="M132 36a56 56 0 0 0-56 56v6.17A12 12 0 0 0 66 110v14a12 12 0 0 0 10.3 11.88 56.04 56.04 0 0 0 31.7 44.73v18.4h-4a72 72 0 0 0-72 72v9h200v-9a72 72 0 0 0-72-72h-4v-18.39a56.04 56.04 0 0 0 31.7-44.73A12 12 0 0 0 198 124v-14a12 12 0 0 0-10-11.83V92a56 56 0 0 0-56-56Z" fill="#edb98a"></path><path d="M108 180.61v8a55.79 55.79 0 0 0 24 5.39c8.59 0 16.73-1.93 24-5.39v-8a55.79 55.79 0 0 1-24 5.39 55.79 55.79 0 0 1-24-5.39Z" fill="#000" fill-opacity=".1"></path><g transform="translate(0 170)"><path d="M132.5 54C151 54 166 44.37 166 32.5c0-1.1-.13-2.18-.38-3.23A72 72 0 0 1 232 101.05V110H32v-8.95A72 72 0 0 1 99.4 29.2a14.1 14.1 0 0 0-.4 3.3C99 44.37 114 54 132.5 54Z" fill="#1A7A4A"></path><g transform="translate(77 58)"><path fill-rule="evenodd" clip-rule="evenodd" d="M71.76 15.26c1.6-.18 4.79-.55 5.2.98.3 1.09-1.16 2.07-2.26 2.8-.34.24-.64.44-.85.61l-.16.14a25.73 25.73 0 0 1-4.66 3.41 12.85 12.85 0 0 1-2.93 1.08c-.28.07-.43.11-.55.2-.15.11-.23.3-.43.74l-.03.08c-.45 1-.73 2.18-1 3.36-.23 1.02-.47 2.04-.81 2.95-1.7 4.46-5.77 14.8-12.27 10.26-1.7-1.2-2.78-3.3-3.75-5.24-.2-.41-.4-.81-.61-1.2a43.46 43.46 0 0 1-3.38-8.24c-.1-.37-.16-.66-.2-.92-.14-.68-.2-1.04-.93-1.5-.37-.23-.9-.36-1.4-.49-.36-.09-.7-.17-.99-.29a17.05 17.05 0 0 1-4.08-2.44c-1.24-.97-6.11-4.95-2.14-5.7 1.8-.33 4.16-.2 6-.11h.07c2.03.1 4.07.57 5.88 1.54h.01c.9.48 1.22.66 1.54.65.2 0 .38-.08.68-.18.24-.1.55-.2.98-.33-3.32-1.12-6.65-3-8.89-5.78-1.2-1.5-4-7.65-1.9-9.06 1.8-1.2 2.42 2 2.88 4.4.2.97.36 1.81.56 2.17 1.24 2.13 3.28 3.23 5.32 4.33.58.32 1.16.63 1.72.96a12.47 12.47 0 0 1-3.67-5.86l-.08-.3c-.31-1.14-.9-3.28-.44-4.19.52-1.04 1.76-1.1 2.45-.22.41.53.48 1.52.54 2.4a8.63 8.63 0 0 0 2.11 5.23 11.17 11.17 0 0 0 5.68 3.73c5.12 1.26 6.91-4.1 7.6-8.25.04-.24.06-.52.08-.81.05-.93.11-2 .97-2.36 1.37-.6 1.9.74 1.94 1.78.09 2.31-1.06 5.85-2.17 7.84 2.8-1.73 5-4.48 5.9-7.69.1-.37.15-.9.2-1.46.1-1.2.22-2.58.98-3.04 1.54-.92 2.02.92 1.97 2.02-.32 6.52-5.3 12.44-11.49 14.07l.55.28c.95.5.98.53 2.3-.25.9-.53 1.86-.93 2.84-1.24 1.47-.45 3.05-.68 4.58-.81l.54-.06Zm-12.9 9.36c-.07 3.27-3.24 3.04-2.82.1.32-2.32 3.68-2.24 2.82-.1Zm-1.93 9.02c-.5 1.56-4.33 2.12-3.9-.17.37-1.95 4.56-2.03 3.9.17ZM51.7 27c-2.82 0-1.9-4.87 1-3.86 2.27.8 1.33 3.86-1 3.86Z" fill="#fff"></path></g></g><g transform="translate(78 134)"><path fill-rule="evenodd" clip-rule="evenodd" d="M35.12 15.13a19 19 0 0 0 37.77-.09c.08-.77-.77-2.04-1.85-2.04H37.1C36 13 35 14.18 35.12 15.13Z" fill="#000" fill-opacity=".7"></path><path d="M70 13H39a5 5 0 0 0 5 5h21a5 5 0 0 0 5-5Z" fill="#fff"></path><path d="M66.7 27.14A10.96 10.96 0 0 0 54 25.2a10.95 10.95 0 0 0-12.7 1.94A18.93 18.93 0 0 0 54 32c4.88 0 9.33-1.84 12.7-4.86Z" fill="#FF4F6D"></path></g><g transform="translate(104 122)"><path fill-rule="evenodd" clip-rule="evenodd" d="M16 8c0 4.42 5.37 8 12 8s12-3.58 12-8" fill="#000" fill-opacity=".16"></path></g><g transform="translate(76 90)"><path d="M16.16 22.45c1.85-3.8 6-6.45 10.84-6.45 4.81 0 8.96 2.63 10.82 6.4.55 1.13-.24 2.05-1.03 1.37a15.05 15.05 0 0 0-9.8-3.43c-3.73 0-7.12 1.24-9.55 3.23-.9.73-1.82-.01-1.28-1.12ZM74.16 22.45c1.85-3.8 6-6.45 10.84-6.45 4.81 0 8.96 2.63 10.82 6.4.55 1.13-.24 2.05-1.03 1.37a15.05 15.05 0 0 0-9.8-3.43c-3.74 0-7.13 1.24-9.56 3.23-.9.73-1.82-.01-1.28-1.12Z" fill-rule="evenodd" clip-rule="evenodd" fill="#000" fill-opacity=".6"></path></g><g transform="translate(76 82)"><path d="M15.63 17.16c3.92-5.51 14.65-8.6 23.9-6.33a2 2 0 1 0 .95-3.88c-10.74-2.64-23.17.94-28.11 7.9a2 2 0 0 0 3.26 2.3ZM96.37 17.16c-3.91-5.51-14.65-8.6-23.9-6.33a2 2 0 1 1-.95-3.88c10.74-2.64 23.17.94 28.11 7.9a2 2 0 0 1-3.26 2.3Z" fill="#000" fill-opacity=".6"></path></g><g transform="translate(-1)"><path d="M86.67 68H64v112.91a4.09 4.09 0 0 0 4.09 4.1 18.58 18.58 0 0 0 18.58-18.6V68ZM202 68h-22.67v112.91a4.09 4.09 0 0 0 4.09 4.1A18.58 18.58 0 0 0 202 166.4V68Z" fill="#F4F4F4"></path><path d="M63 64a44 44 0 0 1 44-44h52a44 44 0 0 1 44 44v104.6a16.4 16.4 0 0 1-16.4 16.4c-1.98 0-3.6-1.62-3.6-3.6V74H83v94.6A16.4 16.4 0 0 1 66.6 185c-1.99 0-3.6-1.62-3.6-3.6V64Z" fill="#C8362E"></path><rect x="74" y="52" width="118" height="36" rx="8" fill="#000" fill-opacity=".1"></rect><rect x="74" y="50" width="118" height="36" rx="8" fill="#F4F4F4"></rect></g><g transform="translate(49 72)"></g><g transform="translate(62 42)"></g></g></g></svg></g></svg>