<svg xmlns="http://www.w3.org/2000/svg" viewBox="0 0 256 256" shape-rendering="geometricPrecision"><circle cx="128" cy="128" r="128" fill="#FF77AB"/><ellipse cx="58" cy="138" rx="18" ry="26" fill="#3a2418"/><ellipse cx="198" cy="138" rx="18" ry="26" fill="#3a2418"/><circle cx="58" cy="116" r="6" fill="#ffd24a"/><circle cx="198" cy="116" r="6" fill="#ffd24a"/><path d="M40 256 C 40 188 84 168 128 168 C 172 168 216 188 216 256 Z" fill="#7a5fdf"/><path d="M104 162 q0 16 24 20 q24 -4 24 -20 Z" fill="#a87248"/><ellipse cx="128" cy="118" rx="48.0" ry="54.0" fill="#d09870"/><ellipse cx="86" cy="124" rx="5.5" ry="7" fill="#d09870"/><ellipse cx="170" cy="124" rx="5.5" ry="7" fill="#d09870"/><path d="M78 102 q4 -34 50 -38 q46 4 50 38 q-2 18 -10 22 q-8 -16 -24 -18 q-2 -2 -16 0 q-14 -2 -16 0 q-16 2 -24 18 q-8 -4 -10 -22 Z" fill="#3a2418"/><path d="M88 108 q12 -10 30 -6 q4 8 0 12 q-22 -2 -30 -6 Z" fill="#3a2418"/><path d="M101 104 q9 -4 18 0" stroke="#2a1810" stroke-width="3.2" fill="none" stroke-linecap="round"/><path d="M137 104 q9 -4 18 0" stroke="#2a1810" stroke-width="3.2" fill="none" stroke-linecap="round"/><ellipse cx="110" cy="120" rx="4.5" ry="6" fill="#1f1a16"/><ellipse cx="146" cy="120" rx="4.5" ry="6" fill="#1f1a16"/><circle cx="111.5" cy="118" r="1.4" fill="#fff"/><circle cx="147.5" cy="118" r="1.4" fill="#fff"/><path d="M126 128 q-3 8 0 12 q3 2 5 0" stroke="#a87248" stroke-width="2" fill="none" stroke-linecap="round"/><circle cx="96" cy="138" r="6" fill="#e26a4a" opacity="0.55"/><circle cx="160" cy="138" r="6" fill="#e26a4a" opacity="0.55"/><path d="M114 144 q14 12 28 0" stroke="#3a1f1a" stroke-width="2.6" fill="none" stroke-linecap="round"/></svg>