<svg xmlns="http://www.w3.org/2000/svg" viewBox="0 0 280 280" fill="none" shape-rendering="auto"><metadata xmlns:rdf="http://www.w3.org/1999/02/22-rdf-syntax-ns#" xmlns:xsi="http://www.w3.org/2001/XMLSchema-instance" xmlns:dc="http://purl.org/dc/elements/1.1/" xmlns:dcterms="http://purl.org/dc/terms/"><rdf:RDF><rdf:Description><dc:title>Avataaars</dc:title><dc:creator>Pablo Stanley</dc:creator><dc:source xsi:type="dcterms:URI">https://avataaars.com/</dc:source><dcterms:license xsi:type="dcterms:URI">https://avataaars.com/</dcterms:license><dc:rights>Remix of „Avataaars” (https://avataaars.com/) by „Pablo Stanley”, licensed under „Free for personal and commercial use” (https://avataaars.com/)</dc:rights></rdf:Description></rdf:RDF></metadata><mask id="viewboxMask"><rect width="280" height="280" rx="0" ry="0" x="0" y="0" fill="#fff" /></mask><g mask="url(#viewboxMask)"><rect fill="#c0aede" width="280" height="280" x="0" y="0" /><g transform="translate(8)"><path d="M132 36a56 56 0 0 0-56 56v6.17A12 12 0 0 0 66 110v14a12 12 0 0 0 10.3 11.88 56.04 56.04 0 0 0 31.7 44.73v18.4h-4a72 72 0 0 0-72 72v9h200v-9a72 72 0 0 0-72-72h-4v-18.39a56.04 56.04 0 0 0 31.7-44.73A12 12 0 0 0 198 124v-14a12 12 0 0 0-10-11.83V92a56 56 0 0 0-56-56Z" fill="#fd9841"/><path d="M108 180.61v8a55.79 55.79 0 0 0 24 5.39c8.59 0 16.73-1.93 24-5.39v-8a55.79 55.79 0 0 1-24 5.39 55.79 55.79 0 0 1-24-5.39Z" fill="#000" fill-opacity=".1"/><g transform="translate(0 170)"><path d="M132.5 54C151 54 166 44.37 166 32.5c0-1.1-.13-2.18-.38-3.23A72 72 0 0 1 232 101.05V110H32v-8.95A72 72 0 0 1 99.4 29.2a14.1 14.1 0 0 0-.4 3.3C99 44.37 114 54 132.5 54Z" fill="#262e33"/><g transform="translate(77 58)"><path d="M10.27 30.13c3.28-.56 5.73-3.55 5.18-6.79-.46-2.72-1.74-.34-2.97.86-1.34 1.3-2.45 2.57-4.54 2.05-3.6-.9-4.86-5.4-3.84-8.48a5.94 5.94 0 0 1 3.48-3.7c1.85-.74 3.2.1 4.75 1.1.28.19 1.73 1.37 2 1.25.45-.21.1-2.43.04-2.73a4.8 4.8 0 0 0-2.62-3.24c-3.34-1.64-7.52.48-9.64 3.05-4.88 5.9-.91 18.17 8.17 16.62ZM20.28 11.04Zm-1.6 12.86c.51 3.48 2.99 6.5 6.96 6.36 4.28-.16 6.06-4.1 7-7.49.97-3.4 2.06-7.68.67-11.09-.42-1.03-.68-2.38-1.71-1.53-1.26 1.03-1.41 4.04-1.52 5.44-.2 2.65-.78 9.97-4.1 10.95-4.18 1.22-4.05-5.85-4-7.98.03-1.9.24-3.73-.35-5.58-.31-.99-.59-2.44-1.53-1.64-1.29 1.11-1.45 3.83-1.54 5.33-.14 2.4-.21 4.84.13 7.23ZM37.78 26.75c.2.4.63 1.4 1.02 1.67.95.67-.05.71.8-.05.82-.73 1.13-2.72 1.26-3.67.38-2.96-.12-6.11-.09-9.1 1.02 2.22 1.58 4.59 2.39 6.88.55 1.58 1.4 4.8 3.65 4.75 2.45-.05 2.58-3.14 2.9-4.82.47-2.37.97-4.72 1.68-7.04.1 3.91-1.43 11 2.1 13.92.02.02 1.44-4.15 1.47-4.4.23-1.7.09-3.45.11-5.15.05-3.6.72-8-.3-11.5-.33-1.14-.97-2.27-2.4-2.24-1.83.04-2.24 1.99-2.7 3.3a114.02 114.02 0 0 0-3.36 10.94c-.55-1.68-5.34-16.42-8.8-10.9-.55.89-.3 2.22-.33 3.2-.04 1.87-.15 3.75-.2 5.63-.06 2.84-.4 5.9.81 8.58ZM62.02 13.71c.72-.14 5.74-1.73 5.52-.14-.22 1.68-4.63 3.31-5.81 3.88 0-1.2-.24-2.44-.65-3.57l.94-.17Zm5.72-.64c-.03-.04 0 0 0 0Zm.12 8.34c2.27 1.22 1.29 3.42-.43 4.6-.65.47-6.53 1.82-6.51 1.68.18-1.69-.26-5.01 1-6.01 1.3-1.04 4.5-.81 5.94-.26Zm.06-8s.01.03 0 0Zm-9.98 16.85c.23.55.86 1.91 1.57 1.94.86.04.8-1.04.93-1.7 3.44 1.72 8.5-.05 10.9-3.03a6.15 6.15 0 0 0-2.57-9.75c2.1-1.69 4.02-5.4 1.25-7.49a7.68 7.68 0 0 0-8.12-.3c-2.74 1.72-3.85 5.83-4.1 9-.25 3.39-1.15 8.13.14 11.33ZM76.05 21.87c.07 2.07-.15 4.29.33 6.3.17.72.44 1.52.76 2.17.61 1.21.31 1.05 1.03.36 2.18-2.08 1.21-8.58 1.16-11.25-.04-2.08.06-4.28-.51-6.28-.16-.56-1.12-3.35-1.66-3.29-.81.1-1.37 3.93-1.42 4.7-.15 2.4.23 4.9.31 7.3ZM94.75 22.43c-1.58-.14-3.62.07-5.12.56.7-1.92 1.48-4.06 2.24-5.8.47-1.08.97-2.16 1.5-3.23 1.27 2.68 1.98 5.82 2.82 8.66-.47-.08-.96-.15-1.44-.19Zm5.44.72c-.73-2.77-1.58-5.53-2.43-8.27-.54-1.75-1.13-3.92-2.6-5.17-4.16-3.56-6.52 5.85-7.55 8.23-.98 2.3-2.21 4.63-2.85 7.05a9.48 9.48 0 0 0-.24 3.64c.2 1.52 0 1.74 1.3.91 1-.63 1.4-1.79 2.22-2.56.14-.14.22-.68.4-.76.18-.1 1.5.25 1.8.27 2.18.16 4.72-.2 6.72-1.04.2.84 1.63 5.96 2.98 5.77.6-.08.96-3.06 1-3.54.08-1.55-.36-3.05-.75-4.54ZM109.3 9.43c-.26-1.2-.81-3.29-1.84-2.11-1.4 1.6-1.1 5.17-1.11 7.18-.02 1.45-1.55 12.06.56 11.88-.1 0 .84-1.67.98-1.92a12.37 12.37 0 0 0 1.32-4.72c.37-3.24.79-7.12.1-10.3ZM108.16 30.3c-2.23-2.73-6.3.66-5.04 3.38 1.73 3.7 7.33-.57 5.04-3.38ZM94.9 34.54c-2.9-.73-6.3-.24-9.25-.15-3.08.1-6.16.27-9.24.36-6.57.2-13.13.1-19.7.04-12.44-.1-24.92.69-37.37.17-2.67-.12-5.54-.72-8.2-.21-.72.14-3 .54-3.32 1.26-.34.76 1.4 1.56 2.33 1.96 2.42 1.04 5.33.86 7.9.96 2.93.12 5.89.06 8.82-.01 12.07-.3 24.09-1.34 36.18-1.17 6.97.1 13.93.04 20.9 0 3.33-.01 7 .53 10.28-.06.55-.1 3.76-.85 3.8-1.83.03-.46-2.8-1.23-3.12-1.32Z" fill-rule="evenodd" clip-rule="evenodd" fill="#fff"/></g></g><g transform="translate(78 134)"><path fill-rule="evenodd" clip-rule="evenodd" d="M34 30.4C35.14 19.9 38.24 11 54 11c15.76 0 18.92 8.96 20 19.5.08.84-.83 1.5-1.96 1.5-6.69 0-9.37-1.5-18.05-1.5-8.7 0-13.24 1.5-17.9 1.5-1.15 0-2.2-.55-2.1-1.6Z" fill="#000" fill-opacity=".7"/><path d="M67.86 15.1c-.8.57-1.8.9-2.86.9H44c-1.3 0-2.49-.5-3.38-1.31C43.56 12.38 47.8 11 54 11c6.54 0 10.9 1.54 13.86 4.1Z" fill="#fff"/><path d="M42 25a6 6 0 0 0-6 6v7a6 6 0 0 0 12 0v-2h.08a6 6 0 0 1 11.84 0H60a6 6 0 0 0 12 0v-5a6 6 0 0 0-6-6H42Z" fill="#7BB24B"/><path d="M72 31a6 6 0 0 0-6-6H42a6 6 0 0 0-6 6v6a6 6 0 0 0 12 0v-2h.08a6 6 0 0 1 11.84 0H60a6 6 0 0 0 12 0v-4Z" fill="#88C553"/></g><g transform="translate(104 122)"><path fill-rule="evenodd" clip-rule="evenodd" d="M16 8c0 4.42 5.37 8 12 8s12-3.58 12-8" fill="#000" fill-opacity=".16"/></g><g transform="translate(76 90)"><path d="M44 22a14 14 0 1 1-28 0 14 14 0 0 1 28 0ZM96 22a14 14 0 1 1-28 0 14 14 0 0 1 28 0Z" fill="#fff"/><path d="M36 22a6 6 0 1 1-12 0 6 6 0 0 1 12 0ZM88 22a6 6 0 1 1-12 0 6 6 0 0 1 12 0Z" fill="#000" fill-opacity=".7"/></g><g transform="translate(76 82)"><path d="M26.55 6.15c-5.8.27-15.2 4.49-14.96 10.34.01.18.3.27.43.12 2.76-2.96 22.32-5.95 29.2-4.36.64.14 1.12-.48.72-.93-3.43-3.85-10.2-5.43-15.4-5.18ZM86.45 6.15c5.8.27 15.2 4.49 14.96 10.34-.01.18-.3.27-.43.12-2.76-2.96-22.32-5.95-29.2-4.36-.64.14-1.12-.48-.72-.93 3.43-3.85 10.2-5.43 15.4-5.18Z" fill-rule="evenodd" clip-rule="evenodd" fill="#000" fill-opacity=".6"/></g><g transform="translate(-1)"><path fill-rule="evenodd" clip-rule="evenodd" d="M193.76 70.77a62.92 62.92 0 0 0-1.51-9.86 51.78 51.78 0 0 0-2.5-7.49c-.6-1.48-2.02-3.52-2.19-5.13-.16-1.57 1.07-3.32 1.33-5.16.24-1.79.2-3.66-.17-5.44-.83-4.03-3.6-7.77-7.85-8.82-.95-.23-2.97.06-3.64-.5-.77-.63-1.3-2.8-2-3.67-2-2.47-5.1-4.07-8.37-3.51-2.41.4-1.03.9-2.84-.51-1-.8-1.75-2-2.73-2.85a24.7 24.7 0 0 0-4.9-3.28 50.82 50.82 0 0 0-14.84-4.91c-9.28-1.52-19.2-.2-28.2 2.22a74.58 74.58 0 0 0-13.14 4.74c-1.78.87-2.81 1.58-4.67 1.81-2.93.36-5.4.34-8.18 1.58-8.54 3.82-12.39 12.69-9.06 21.17.66 1.71 1.57 3.21 2.82 4.59 1.52 1.68 2.07 1.35.76 3.28a52.78 52.78 0 0 0-4.96 9.17c-3.53 8.4-4.12 17.87-3.89 26.83.08 3.13.22 6.3.71 9.42.22 1.34.28 3.87 1.29 4.87.5.5 1.24.78 1.96.58 1.71-.47 1.13-1.73 1.17-2.9.2-5.88-.08-11.08 1.32-16.9a44.4 44.4 0 0 1 5-12.03 72.07 72.07 0 0 1 9.8-13.35c.92-.99 1.12-1.4 2.35-1.48.93-.05 2.3.59 3.2.8 2 .5 4 .98 6.03 1.3 3.74.6 7.45.65 11.22.53 7.43-.23 14.88-.75 22.09-2.62 4.78-1.24 9.02-3.47 13.6-5.1.08-.04 1.23-.85 1.43-.82.28.04 1.97 1.82 2.26 2.05 2.23 1.74 4.67 2.48 7.07 3.83 2.97 1.66.1-.72 1.73 1.36.48.6.72 1.72 1.1 2.4 1.22 2.2 2.9 4.1 4.93 5.63 1.96 1.47 4.9 2.18 5.9 4.1.76 1.47 1.02 3.48 1.64 5.06 1.63 4.13 3.78 7.99 5.93 11.88 1.73 3.14 3.62 5.89 3.81 9.47.07 1.25-1.12 8.74 1.78 6.46.43-.34 1.35-4.15 1.54-4.8.77-2.63 1.05-5.38 1.4-8.09.69-5.38.92-10.5.46-15.91Z" fill="#2c1b18"/></g><g transform="translate(49 72)"><path fill-rule="evenodd" clip-rule="evenodd" d="M101.43 98.17c-2.52 2.3-5.2 3.32-8.58 2.6-.58-.12-2.95-4.54-8.85-4.54-5.9 0-8.27 4.42-8.85 4.54-3.39.72-6.07-.3-8.58-2.6-4.72-4.31-8.65-10.26-6.3-16.75 1.24-3.38 3.24-7.1 6.88-8.17 3.89-1.15 9.35 0 13.26-.8A8.6 8.6 0 0 0 84 71a8.6 8.6 0 0 0 3.58 1.46c3.92.78 9.38-.36 13.27.79 3.64 1.07 5.64 4.79 6.87 8.17 2.36 6.49-1.57 12.44-6.3 16.75ZM140.08 26c-3.4 8.4-2.1 18.86-2.72 27.68-.52 7.16-2.02 17.9-8.39 22.53-3.25 2.37-9.18 6.35-13.43 5.24-2.93-.76-3.24-9.16-7.09-12.3a22.42 22.42 0 0 0-15.3-4.9c-2.37.11-7.17.09-9.15 1.91-1.98-1.82-6.78-1.8-9.15-1.9a22.42 22.42 0 0 0-15.3 4.89c-3.85 3.14-4.16 11.54-7.1 12.3-4.24 1.1-10.17-2.87-13.42-5.24-6.37-4.62-7.87-15.37-8.39-22.53-.63-8.82.69-19.28-2.72-27.68-1.66 0-.57 16.13-.57 16.13v20.36c.04 15.28 9.59 38.16 30.76 46.9C63.29 111.53 75 115 84 115c8.98.01 20.71-3.13 25.9-5.27 21.16-8.73 30.71-31.95 30.75-47.23V42.13s1.1-16.13-.57-16.13Z" fill="#2c1b18"/></g><g transform="translate(62 42)"><g fill-rule="evenodd" clip-rule="evenodd"><path d="M111.71 53.49c4.67.16 8 .88 10.55 4.52 3.01.15 6.25.37 8.98 1.63 3.39 1.56 3.9 5.1-.36 5.59-1.86.2-3.72-.12-5.55-.45l-.19-.03-.33-.06c1.1 9.46-6.21 20.87-14.23 24.35C99.6 93.8 87.34 88.53 81.53 79c-2.62-4.3-4.14-10.51-4.46-15.86-.42-.2-.83-.44-1.23-.67-.38-.22-.76-.44-1.12-.61-2-.98-5.34-1.1-7.5 0-.35.17-.7.37-1.05.58-.42.25-.86.5-1.3.72C64.53 68.5 63.01 74.7 60.4 79c-5.8 9.53-18.07 14.8-29.05 10.04-8.02-3.48-15.33-14.89-14.23-24.35l-.33.06-.2.03c-1.83.33-3.7.66-5.55.45-4.27-.5-3.74-4.03-.36-5.6 2.72-1.25 5.96-1.47 8.97-1.62 2.55-3.63 5.88-4.36 10.55-4.52l23.29-.46c5.19-.14 9.72 0 11.03 4.6a18.7 18.7 0 0 1 6.35-1.25c1.86 0 4.35.45 6.5 1.28 1.3-4.64 5.83-4.77 11.03-4.63l23.3.46Zm-24.03 6.78c-2.37.03-3.5.42-3.9 2.9-.4 2.5 0 5.31.46 7.78.73 3.77 1.92 7.46 4.71 10.22a16.24 16.24 0 0 0 8.32 4.34c.11.03.54.1.96.16.63.1 1.23.18.71.13 3.73.4 7.72.3 10.82-2.05 3.53-2.7 5.95-6.95 7.01-11.2.63-2.48 1.93-8.42-.46-10.4-2.73-2.28-28.63-1.88-28.63-1.88Zm-33.43 0c2.37.03 3.5.42 3.9 2.9.4 2.5 0 5.32-.46 7.78-.73 3.77-1.92 7.46-4.71 10.22a16.23 16.23 0 0 1-9.28 4.5c-.64.1-1.26.19-.68.13-3.73.4-7.74.32-10.85-2.05-3.53-2.69-5.95-6.95-7.01-11.2-.63-2.48-1.93-8.42.46-10.4 2.73-2.28 28.63-1.87 28.63-1.87Zm-10.93 25.5Z" fill="#000" fill-opacity=".1"/><path d="M55.01 57.28c2.51.02 3.7.45 4.13 3.11.43 2.7 0 5.74-.5 8.4-.75 4.06-2.02 8.04-4.98 11a17.16 17.16 0 0 1-8.8 4.69c-.33.07-3.15.47-1.42.27-4.04.47-8.43.45-11.8-2.17-3.74-2.9-6.3-7.5-7.43-12.07-.66-2.66-2.04-9.06.49-11.2C27.6 56.85 55 57.28 55 57.28Z" fill="#000" fill-opacity=".7"/><path d="M55.01 57.28c2.51.02 3.7.45 4.13 3.11.43 2.7 0 5.74-.5 8.4-.75 4.06-2.02 8.04-4.98 11a17.16 17.16 0 0 1-8.8 4.69c-.33.07-3.15.47-1.42.27-4.04.47-8.43.45-11.8-2.17-3.74-2.9-6.3-7.5-7.43-12.07-.66-2.66-2.04-9.06.49-11.2C27.6 56.85 55 57.28 55 57.28Z" fill="url(#accessoriesSunglasses-a)" style="mix-blend-mode:screen"/><path d="M86.92 57.27c-2.51.03-3.7.45-4.13 3.12-.43 2.7 0 5.73.5 8.4.75 4.06 2.02 8.03 4.98 11a17.17 17.17 0 0 0 8.8 4.69c.33.07 3.15.47 1.42.26 4.04.47 8.43.45 11.8-2.16 3.74-2.9 6.3-7.5 7.43-12.07.66-2.67 2.04-9.07-.49-11.2-2.9-2.46-30.31-2.03-30.31-2.03Z" fill="#000" fill-opacity=".7"/><path d="M86.92 57.27c-2.51.03-3.7.45-4.13 3.12-.43 2.7 0 5.73.5 8.4.75 4.06 2.02 8.03 4.98 11a17.17 17.17 0 0 0 8.8 4.69c.33.07 3.15.47 1.42.26 4.04.47 8.43.45 11.8-2.16 3.74-2.9 6.3-7.5 7.43-12.07.66-2.67 2.04-9.07-.49-11.2-2.9-2.46-30.31-2.03-30.31-2.03Z" fill="url(#accessoriesSunglasses-b)" style="mix-blend-mode:screen"/><path d="M111.71 51.49c4.67.16 8 .88 10.55 4.52 3.01.15 6.25.37 8.98 1.63 3.39 1.56 3.9 5.1-.36 5.59-1.86.2-3.72-.12-5.55-.45l-.19-.03-.33-.06c1.1 9.46-6.21 20.87-14.23 24.35C99.6 91.8 87.34 86.53 81.53 77c-2.62-4.3-4.14-10.51-4.46-15.86-.42-.2-.83-.44-1.23-.67-.38-.22-.76-.44-1.12-.61-2-.98-5.34-1.1-7.5 0-.35.17-.7.37-1.05.58-.42.25-.86.5-1.3.72C64.53 66.5 63.01 72.7 60.4 77c-5.8 9.53-18.07 14.8-29.05 10.04-8.02-3.48-15.33-14.89-14.23-24.35-.11 0-.22.03-.33.05l-.2.03c-1.83.33-3.7.66-5.55.45-4.27-.5-3.74-4.03-.36-5.6 2.72-1.25 5.96-1.47 8.97-1.62 2.55-3.63 5.88-4.36 10.55-4.52l23.29-.46c5.19-.14 9.72 0 11.03 4.6a18.7 18.7 0 0 1 6.35-1.25c1.86 0 4.35.45 6.5 1.28 1.3-4.64 5.83-4.77 11.03-4.63l23.3.46Zm-24.03 6.78c-2.37.03-3.5.42-3.9 2.9-.4 2.5 0 5.31.46 7.78.73 3.77 1.92 7.46 4.71 10.22a16.24 16.24 0 0 0 8.32 4.34c.11.03.54.1.96.16.63.1 1.23.18.71.13 3.73.4 7.72.3 10.82-2.05 3.53-2.7 5.95-6.95 7.01-11.2.63-2.48 1.93-8.42-.46-10.4-2.73-2.28-28.63-1.88-28.63-1.88Zm-33.43 0c2.37.03 3.5.42 3.9 2.9.4 2.5 0 5.32-.46 7.78-.73 3.77-1.92 7.46-4.71 10.22a16.23 16.23 0 0 1-9.28 4.5c-.64.1-1.26.19-.68.13-3.73.4-7.74.32-10.85-2.05-3.53-2.69-5.95-6.95-7.01-11.2-.63-2.48-1.93-8.42.46-10.4 2.73-2.28 28.63-1.87 28.63-1.87Zm-10.93 25.5Z" fill="#25557c"/></g><defs><linearGradient id="accessoriesSunglasses-a" x1="28.56" y1="57.25" x2="28.56" y2="76.8" gradientUnits="userSpaceOnUse"><stop stop-color="#fff" stop-opacity=".5"/><stop offset="1" stop-opacity=".5"/></linearGradient><linearGradient id="accessoriesSunglasses-b" x1="82.61" y1="57.25" x2="82.61" y2="84.98" gradientUnits="userSpaceOnUse"><stop stop-color="#fff" stop-opacity=".5"/><stop offset=".71" stop-opacity=".5"/></linearGradient></defs></g></g></g></svg>