<svg xmlns="http://www.w3.org/2000/svg" viewBox="0 0 256 256" shape-rendering="geometricPrecision"><circle cx="128" cy="128" r="128" fill="#7B7BFF"/><circle cx="128" cy="100" r="74" fill="#1a1310"/><circle cx="68" cy="92" r="14" fill="#1a1310"/><circle cx="80" cy="58" r="14" fill="#1a1310"/><circle cx="112" cy="42" r="14" fill="#1a1310"/><circle cx="146" cy="42" r="14" fill="#1a1310"/><circle cx="178" cy="58" r="14" fill="#1a1310"/><circle cx="190" cy="92" r="14" fill="#1a1310"/><path d="M40 256 C 40 188 84 168 128 168 C 172 168 216 188 216 256 Z" fill="#e9c14a"/><path d="M104 162 q0 16 24 20 q24 -4 24 -20 Z" fill="#4d2c1b"/><ellipse cx="128" cy="118" rx="50.0" ry="58.0" fill="#6b4028"/><ellipse cx="86" cy="124" rx="5.5" ry="7" fill="#6b4028"/><ellipse cx="170" cy="124" rx="5.5" ry="7" fill="#6b4028"/><path d="M84 100 q4 -22 44 -26 q40 4 44 26 q-2 12 -8 16 q-8 -14 -20 -14 q-8 -8 -16 -6 q-12 -2 -16 6 q-12 0 -20 14 q-6 -4 -8 -16 Z" fill="#1a1310"/><path d="M101 104 q9 -4 18 0" stroke="#1a1310" stroke-width="3.2" fill="none" stroke-linecap="round"/><path d="M137 104 q9 -4 18 0" stroke="#1a1310" stroke-width="3.2" fill="none" stroke-linecap="round"/><ellipse cx="110" cy="118" rx="3.6" ry="5" fill="#1f1a16"/><ellipse cx="146" cy="118" rx="3.6" ry="5" fill="#1f1a16"/><path d="M126 128 q-3 8 0 12 q3 2 5 0" stroke="#4d2c1b" stroke-width="2" fill="none" stroke-linecap="round"/><circle cx="96" cy="138" r="6" fill="#c95642" opacity="0.55"/><circle cx="160" cy="138" r="6" fill="#c95642" opacity="0.55"/><path d="M116 144 q12 10 24 0" stroke="#2a1610" stroke-width="2.6" fill="none" stroke-linecap="round"/><circle cx="84" cy="140" r="6" fill="none" stroke="#e9c14a" stroke-width="2.5"/><circle cx="172" cy="140" r="6" fill="none" stroke="#e9c14a" stroke-width="2.5"/></svg>